<mxfile host="Electron" agent="Mozilla/5.0 (Windows NT 10.0; Win64; x64) AppleWebKit/537.36 (KHTML, like Gecko) draw.io/26.0.9 Chrome/128.0.6613.186 Electron/32.2.5 Safari/537.36" version="26.0.9">
  <diagram name="Page-1" id="c7ZTT_fs9E0JfdwcWFNK">
    <mxGraphModel dx="1020" dy="496" grid="1" gridSize="10" guides="1" tooltips="1" connect="1" arrows="1" fold="1" page="1" pageScale="1" pageWidth="850" pageHeight="1100" math="0" shadow="0">
      <root>
        <mxCell id="0" />
        <mxCell id="1" parent="0" />
        <mxCell id="z-xnj4vpK9-gtIpmTemu-1" value="&lt;h1 style=&quot;margin-top: 0px;&quot;&gt;&lt;br&gt;&lt;/h1&gt;" style="text;html=1;whiteSpace=wrap;overflow=hidden;rounded=0;fillColor=default;strokeColor=#E6E6E6;" parent="1" vertex="1">
          <mxGeometry x="46" y="60" width="130" height="480" as="geometry" />
        </mxCell>
        <mxCell id="z-xnj4vpK9-gtIpmTemu-2" value="&lt;font style=&quot;font-size: 20px;&quot;&gt;&lt;b&gt;Sources&lt;/b&gt;&lt;/font&gt;" style="rounded=0;whiteSpace=wrap;html=1;strokeColor=none;" parent="1" vertex="1">
          <mxGeometry x="51" y="30" width="120" height="60" as="geometry" />
        </mxCell>
        <mxCell id="z-xnj4vpK9-gtIpmTemu-3" value="&lt;h1 style=&quot;margin-top: 0px;&quot;&gt;&lt;br&gt;&lt;/h1&gt;" style="text;html=1;whiteSpace=wrap;overflow=hidden;rounded=0;fillColor=default;strokeColor=#E6E6E6;" parent="1" vertex="1">
          <mxGeometry x="230" y="77.5" width="540" height="500" as="geometry" />
        </mxCell>
        <mxCell id="z-xnj4vpK9-gtIpmTemu-4" value="&lt;font style=&quot;font-size: 20px;&quot;&gt;&lt;b&gt;Data Warehouse&lt;/b&gt;&lt;/font&gt;" style="rounded=0;whiteSpace=wrap;html=1;strokeColor=none;" parent="1" vertex="1">
          <mxGeometry x="367.5" y="30" width="215" height="60" as="geometry" />
        </mxCell>
        <mxCell id="z-xnj4vpK9-gtIpmTemu-5" value="&lt;h1 style=&quot;margin-top: 0px;&quot;&gt;&lt;br&gt;&lt;/h1&gt;" style="text;html=1;whiteSpace=wrap;overflow=hidden;rounded=0;fillColor=default;strokeColor=#E6E6E6;" parent="1" vertex="1">
          <mxGeometry x="810" y="60" width="130" height="500" as="geometry" />
        </mxCell>
        <mxCell id="z-xnj4vpK9-gtIpmTemu-6" value="&lt;font style=&quot;font-size: 20px;&quot;&gt;&lt;b&gt;Consume&lt;/b&gt;&lt;/font&gt;" style="rounded=0;whiteSpace=wrap;html=1;strokeColor=none;" parent="1" vertex="1">
          <mxGeometry x="835" y="30" width="80" height="60" as="geometry" />
        </mxCell>
        <mxCell id="z-xnj4vpK9-gtIpmTemu-7" value="&lt;b&gt;Bronze Layer&lt;/b&gt;" style="rounded=0;whiteSpace=wrap;html=1;fillColor=#ffe6cc;strokeColor=#d79b00;" parent="1" vertex="1">
          <mxGeometry x="254" y="90" width="120" height="20" as="geometry" />
        </mxCell>
        <mxCell id="z-xnj4vpK9-gtIpmTemu-8" value="" style="rounded=0;whiteSpace=wrap;html=1;fillColor=none;strokeColor=#d79b00;" parent="1" vertex="1">
          <mxGeometry x="253" y="115" width="120" height="425" as="geometry" />
        </mxCell>
        <mxCell id="z-xnj4vpK9-gtIpmTemu-15" value="&lt;b&gt;Silver Layer&lt;/b&gt;" style="rounded=0;whiteSpace=wrap;html=1;fillColor=#f5f5f5;strokeColor=#666666;fontColor=#333333;" parent="1" vertex="1">
          <mxGeometry x="440" y="90" width="120" height="20" as="geometry" />
        </mxCell>
        <mxCell id="z-xnj4vpK9-gtIpmTemu-16" value="" style="rounded=0;whiteSpace=wrap;html=1;fillColor=none;strokeColor=#666666;fontColor=#333333;" parent="1" vertex="1">
          <mxGeometry x="440" y="115" width="120" height="425" as="geometry" />
        </mxCell>
        <mxCell id="z-xnj4vpK9-gtIpmTemu-17" value="&lt;b&gt;Gold Layer&lt;/b&gt;" style="rounded=0;whiteSpace=wrap;html=1;fillColor=#fff2cc;strokeColor=#d6b656;" parent="1" vertex="1">
          <mxGeometry x="625" y="90" width="120" height="20" as="geometry" />
        </mxCell>
        <mxCell id="z-xnj4vpK9-gtIpmTemu-18" value="" style="rounded=0;whiteSpace=wrap;html=1;fillColor=none;strokeColor=#d6b656;" parent="1" vertex="1">
          <mxGeometry x="625" y="115" width="120" height="425" as="geometry" />
        </mxCell>
        <mxCell id="z-xnj4vpK9-gtIpmTemu-19" value="&lt;b&gt;CRM&lt;/b&gt;" style="image;aspect=fixed;html=1;points=[];align=center;fontSize=12;image=img/lib/azure2/general/Folder_Blank.svg;" parent="1" vertex="1">
          <mxGeometry x="76.5" y="182" width="56.68" height="46" as="geometry" />
        </mxCell>
        <mxCell id="z-xnj4vpK9-gtIpmTemu-20" value="" style="image;aspect=fixed;html=1;points=[];align=center;fontSize=12;image=img/lib/azure2/general/Files.svg;" parent="1" vertex="1">
          <mxGeometry x="116" y="212" width="26.7" height="29.21" as="geometry" />
        </mxCell>
        <mxCell id="z-xnj4vpK9-gtIpmTemu-23" value="&lt;b&gt;ERP&lt;/b&gt;" style="image;aspect=fixed;html=1;points=[];align=center;fontSize=12;image=img/lib/azure2/general/Folder_Blank.svg;" parent="1" vertex="1">
          <mxGeometry x="76.5" y="291" width="56.68" height="46" as="geometry" />
        </mxCell>
        <mxCell id="z-xnj4vpK9-gtIpmTemu-24" value="" style="image;aspect=fixed;html=1;points=[];align=center;fontSize=12;image=img/lib/azure2/general/Files.svg;" parent="1" vertex="1">
          <mxGeometry x="116" y="321" width="26.7" height="29.21" as="geometry" />
        </mxCell>
        <mxCell id="z-xnj4vpK9-gtIpmTemu-25" value="Raw Data" style="html=1;verticalLabelPosition=bottom;align=center;labelBackgroundColor=#ffffff;verticalAlign=top;strokeWidth=2;strokeColor=#d79b00;shadow=0;dashed=0;shape=mxgraph.ios7.icons.data;fillColor=#ffe6cc;fontStyle=1" parent="1" vertex="1">
          <mxGeometry x="292" y="231" width="44" height="59" as="geometry" />
        </mxCell>
        <mxCell id="z-xnj4vpK9-gtIpmTemu-26" value="&lt;font&gt;Clean, Standardized Data&lt;/font&gt;" style="html=1;verticalLabelPosition=bottom;align=center;labelBackgroundColor=#ffffff;verticalAlign=top;strokeWidth=2;strokeColor=#666666;shadow=0;dashed=0;shape=mxgraph.ios7.icons.data;fillColor=#f5f5f5;fontColor=#333333;fontSize=11;fontStyle=1" parent="1" vertex="1">
          <mxGeometry x="478" y="230" width="44" height="60" as="geometry" />
        </mxCell>
        <mxCell id="z-xnj4vpK9-gtIpmTemu-27" value="Business Ready Data" style="html=1;verticalLabelPosition=bottom;align=center;labelBackgroundColor=#ffffff;verticalAlign=top;strokeWidth=2;strokeColor=#d6b656;shadow=0;dashed=0;shape=mxgraph.ios7.icons.data;fillColor=#fff2cc;fontStyle=1" parent="1" vertex="1">
          <mxGeometry x="663" y="233" width="44" height="60" as="geometry" />
        </mxCell>
        <mxCell id="z-xnj4vpK9-gtIpmTemu-29" value="" style="html=1;shadow=0;dashed=0;align=center;verticalAlign=middle;shape=mxgraph.arrows2.arrow;dy=0.67;dx=20;notch=0;fillColor=#1ba1e2;strokeColor=#006EAF;fontColor=#ffffff;" parent="1" vertex="1">
          <mxGeometry x="175" y="233" width="65" height="60" as="geometry" />
        </mxCell>
        <mxCell id="z-xnj4vpK9-gtIpmTemu-33" value="" style="html=1;shadow=0;dashed=0;align=center;verticalAlign=middle;shape=mxgraph.arrows2.arrow;dy=0.67;dx=20;notch=0;fillColor=#1ba1e2;strokeColor=#006EAF;fontColor=#ffffff;" parent="1" vertex="1">
          <mxGeometry x="373" y="230" width="65" height="60" as="geometry" />
        </mxCell>
        <mxCell id="z-xnj4vpK9-gtIpmTemu-35" value="" style="html=1;shadow=0;dashed=0;align=center;verticalAlign=middle;shape=mxgraph.arrows2.arrow;dy=0.67;dx=20;notch=0;fillColor=#1ba1e2;strokeColor=#006EAF;fontColor=#ffffff;" parent="1" vertex="1">
          <mxGeometry x="560" y="230" width="65" height="60" as="geometry" />
        </mxCell>
        <mxCell id="z-xnj4vpK9-gtIpmTemu-36" value="" style="html=1;shadow=0;dashed=0;align=center;verticalAlign=middle;shape=mxgraph.arrows2.arrow;dy=0.67;dx=20;notch=0;fillColor=#1ba1e2;strokeColor=#006EAF;fontColor=#ffffff;" parent="1" vertex="1">
          <mxGeometry x="745" y="230" width="65" height="60" as="geometry" />
        </mxCell>
        <mxCell id="z-xnj4vpK9-gtIpmTemu-41" value="" style="endArrow=none;html=1;rounded=0;" parent="1" source="z-xnj4vpK9-gtIpmTemu-8" edge="1">
          <mxGeometry relative="1" as="geometry">
            <mxPoint x="250" y="370" as="sourcePoint" />
            <mxPoint x="370" y="370" as="targetPoint" />
          </mxGeometry>
        </mxCell>
        <mxCell id="z-xnj4vpK9-gtIpmTemu-43" value="" style="endArrow=none;html=1;rounded=0;" parent="1" edge="1">
          <mxGeometry width="50" height="50" relative="1" as="geometry">
            <mxPoint x="259" y="337" as="sourcePoint" />
            <mxPoint x="369" y="337" as="targetPoint" />
            <Array as="points" />
          </mxGeometry>
        </mxCell>
        <mxCell id="z-xnj4vpK9-gtIpmTemu-44" value="" style="endArrow=none;html=1;rounded=0;" parent="1" edge="1">
          <mxGeometry width="50" height="50" relative="1" as="geometry">
            <mxPoint x="445" y="334.94" as="sourcePoint" />
            <mxPoint x="555" y="334.94" as="targetPoint" />
            <Array as="points" />
          </mxGeometry>
        </mxCell>
        <mxCell id="z-xnj4vpK9-gtIpmTemu-45" value="" style="endArrow=none;html=1;rounded=0;" parent="1" edge="1">
          <mxGeometry width="50" height="50" relative="1" as="geometry">
            <mxPoint x="630" y="334.94" as="sourcePoint" />
            <mxPoint x="740" y="334.94" as="targetPoint" />
            <Array as="points" />
          </mxGeometry>
        </mxCell>
        <mxCell id="z-xnj4vpK9-gtIpmTemu-46" value="&lt;font&gt;&lt;span&gt;Object Typ&lt;/span&gt;e: Table&lt;/font&gt;&lt;div&gt;&lt;span style=&quot;background-color: transparent; color: light-dark(rgb(102, 102, 102), rgb(149, 149, 149));&quot;&gt;1. Load&lt;/span&gt;&lt;/div&gt;&lt;div&gt;&lt;ul&gt;&lt;li&gt;&lt;span style=&quot;background-color: transparent; color: light-dark(rgb(102, 102, 102), rgb(149, 149, 149));&quot;&gt;Batch Processing&lt;/span&gt;&lt;/li&gt;&lt;li&gt;&lt;span style=&quot;background-color: transparent; color: light-dark(rgb(102, 102, 102), rgb(149, 149, 149));&quot;&gt;Full Load&lt;/span&gt;&lt;/li&gt;&lt;/ul&gt;&lt;div&gt;&lt;span&gt;2. No Transformation&lt;/span&gt;&lt;/div&gt;&lt;/div&gt;&lt;div&gt;&lt;span&gt;&lt;br&gt;&lt;/span&gt;&lt;/div&gt;" style="strokeWidth=1;shadow=0;dashed=0;align=center;html=1;shape=mxgraph.mockup.text.textBox;fontColor=#666666;align=left;fontSize=10;spacingLeft=4;spacingTop=-3;whiteSpace=wrap;strokeColor=none;mainText=;verticalAlign=top;fontStyle=1" parent="1" vertex="1">
          <mxGeometry x="259" y="340" width="110" height="180" as="geometry" />
        </mxCell>
        <mxCell id="z-xnj4vpK9-gtIpmTemu-47" value="&lt;font&gt;&lt;span&gt;Object Typ&lt;/span&gt;e: Table&lt;/font&gt;&lt;div&gt;&lt;span style=&quot;background-color: transparent; color: light-dark(rgb(102, 102, 102), rgb(149, 149, 149));&quot;&gt;1. Load&lt;/span&gt;&lt;/div&gt;&lt;div&gt;&lt;ul&gt;&lt;li&gt;&lt;span style=&quot;background-color: transparent; color: light-dark(rgb(102, 102, 102), rgb(149, 149, 149));&quot;&gt;Batch Processing&lt;/span&gt;&lt;/li&gt;&lt;li&gt;&lt;span style=&quot;background-color: transparent; color: light-dark(rgb(102, 102, 102), rgb(149, 149, 149));&quot;&gt;Full Load&lt;/span&gt;&lt;/li&gt;&lt;/ul&gt;&lt;div&gt;&lt;span&gt;2. Transformation:&lt;/span&gt;&lt;/div&gt;&lt;/div&gt;&lt;div&gt;&lt;ul&gt;&lt;li&gt;&lt;span&gt;Dala Cleaning&lt;/span&gt;&lt;/li&gt;&lt;li&gt;Data Standardization&lt;/li&gt;&lt;li&gt;Data Normalization&lt;/li&gt;&lt;li&gt;Derived Columns&lt;/li&gt;&lt;li&gt;Data enrichment&lt;/li&gt;&lt;/ul&gt;&lt;/div&gt;&lt;div&gt;&lt;span&gt;&lt;br&gt;&lt;/span&gt;&lt;/div&gt;" style="strokeWidth=1;shadow=0;dashed=0;align=center;html=1;shape=mxgraph.mockup.text.textBox;fontColor=#666666;align=left;fontSize=9;spacingLeft=4;spacingTop=-3;whiteSpace=wrap;strokeColor=none;mainText=;verticalAlign=top;fontStyle=1" parent="1" vertex="1">
          <mxGeometry x="445" y="337" width="110" height="193" as="geometry" />
        </mxCell>
        <mxCell id="z-xnj4vpK9-gtIpmTemu-48" value="&lt;font&gt;&lt;span&gt;Object Typ&lt;/span&gt;e: Views&lt;/font&gt;&lt;div&gt;&lt;span style=&quot;background-color: transparent; color: light-dark(rgb(102, 102, 102), rgb(149, 149, 149));&quot;&gt;No Load&lt;/span&gt;&lt;/div&gt;&lt;div&gt;&lt;span style=&quot;background-color: transparent; color: light-dark(rgb(102, 102, 102), rgb(149, 149, 149));&quot;&gt;&lt;br&gt;&lt;/span&gt;&lt;/div&gt;&lt;div&gt;&lt;div&gt;&lt;span&gt;2. Transformation&lt;/span&gt;&lt;/div&gt;&lt;/div&gt;&lt;div&gt;&lt;ul&gt;&lt;li&gt;&lt;span&gt;Data Integration&lt;/span&gt;&lt;/li&gt;&lt;li&gt;&lt;span&gt;Aggregations&lt;/span&gt;&lt;/li&gt;&lt;li&gt;&lt;span&gt;Business logics&lt;/span&gt;&lt;/li&gt;&lt;/ul&gt;&lt;div&gt;3. Data Model:&lt;/div&gt;&lt;/div&gt;&lt;div&gt;&lt;ul&gt;&lt;li&gt;Star Schema&lt;/li&gt;&lt;li&gt;Aggregated Table&lt;/li&gt;&lt;/ul&gt;&lt;/div&gt;&lt;div&gt;&lt;span&gt;&lt;br&gt;&lt;/span&gt;&lt;/div&gt;" style="strokeWidth=1;shadow=0;dashed=0;align=center;html=1;shape=mxgraph.mockup.text.textBox;fontColor=#666666;align=left;fontSize=10;spacingLeft=4;spacingTop=-3;whiteSpace=wrap;strokeColor=none;mainText=;verticalAlign=top;fontStyle=1" parent="1" vertex="1">
          <mxGeometry x="630" y="337" width="110" height="193" as="geometry" />
        </mxCell>
        <mxCell id="z-xnj4vpK9-gtIpmTemu-50" value="BI &amp;amp; Reporting" style="image;aspect=fixed;html=1;points=[];align=center;fontSize=12;image=img/lib/azure2/power_platform/PowerBI.svg;" parent="1" vertex="1">
          <mxGeometry x="849.5" y="90" width="51" height="68" as="geometry" />
        </mxCell>
        <mxCell id="z-xnj4vpK9-gtIpmTemu-52" value="Adhoc Quering" style="sketch=0;outlineConnect=0;fontColor=#232F3E;gradientColor=none;fillColor=#8C4FFF;strokeColor=none;dashed=0;verticalLabelPosition=bottom;verticalAlign=top;align=center;html=1;fontSize=12;fontStyle=0;aspect=fixed;pointerEvents=1;shape=mxgraph.aws4.redshift_query_editor_v20_light;" parent="1" vertex="1">
          <mxGeometry x="840" y="233" width="78" height="78" as="geometry" />
        </mxCell>
        <mxCell id="z-xnj4vpK9-gtIpmTemu-53" value="&lt;div&gt;&lt;br&gt;&lt;/div&gt;&lt;div&gt;&lt;br&gt;&lt;/div&gt;&lt;div&gt;&lt;br&gt;&lt;/div&gt;&lt;div&gt;&lt;br&gt;&lt;/div&gt;&lt;div&gt;&lt;br&gt;&lt;/div&gt;&lt;div&gt;Machine Learning&lt;/div&gt;" style="points=[];aspect=fixed;html=1;align=center;shadow=0;dashed=0;fillColor=#FF6A00;strokeColor=none;shape=mxgraph.alibaba_cloud.machine_learning;" parent="1" vertex="1">
          <mxGeometry x="854.1" y="400" width="49.8" height="50.099999999999994" as="geometry" />
        </mxCell>
      </root>
    </mxGraphModel>
  </diagram>
</mxfile>
